<svg xmlns:mydata="http://www.w3.org/2000/svg" mydata:contrastcolor="11111f" mydata:template="Contrast" mydata:presentation="2.5" mydata:layouttype="undefined" mydata:specialfontid="undefined" mydata:id1="114" mydata:id2="114" mydata:companyname="Bross Coffee" mydata:companytagline="" version="1.1" xmlns="http://www.w3.org/2000/svg" xmlns:xlink="http://www.w3.org/1999/xlink" viewBox="0 0 550 470" class="svg-signboard" width="640"  height="547" ><g fill="#44D62C" fill-rule="none" stroke="none" stroke-width="1" stroke-linecap="butt" stroke-linejoin="miter" stroke-miterlimit="10" stroke-dasharray="" stroke-dashoffset="0" font-family="none" font-weight="none" font-size="none" text-anchor="none" style="mix-blend-mode: normal"><g data-paper-data="{&quot;isGlobalGroup&quot;:true,&quot;bounds&quot;:{&quot;x&quot;:145.99999999999997,&quot;y&quot;:105.99999999999997,&quot;width&quot;:258,&quot;height&quot;:258}}" fill="#44D62C"><g data-paper-data="{&quot;fillRule&quot;:&quot;evenodd&quot;,&quot;fillRuleOriginal&quot;:&quot;evenodd&quot;,&quot;isIcon&quot;:true,&quot;iconStyle&quot;:&quot;standalone&quot;,&quot;selectedEffects&quot;:{&quot;container&quot;:&quot;circle_baseline_outline1&quot;,&quot;transformation&quot;:&quot;&quot;,&quot;pattern&quot;:&quot;&quot;},&quot;bounds&quot;:{&quot;x&quot;:212.29147179047493,&quot;y&quot;:172.29147179047493,&quot;width&quot;:125.41757690180623,&quot;height&quot;:125.41752673477538},&quot;widthRatioIconToContainer&quot;:0.5201444623983968,&quot;heightRatioIconToContainer&quot;:0.8605612050834162,&quot;relativeBoundsIconToContainer&quot;:{&quot;top&quot;:0.003791887125690454,&quot;left&quot;:-0.0010136943005393756},&quot;iconType&quot;:&quot;icon&quot;,&quot;rawIconId&quot;:&quot;f5038834-0802-4f05-88a4-5042b3181588&quot;,&quot;isSvgStockIcon&quot;:true,&quot;combineTerms&quot;:&quot;coffee&quot;,&quot;combineTermsExtended&quot;:{&quot;icon&quot;:[&quot;coffee&quot;]},&quot;isDetailed&quot;:true,&quot;blockLetter&quot;:&quot;O&quot;,&quot;blockLetterId&quot;:0,&quot;suitableAsStandaloneIcon&quot;:true}" fill-rule="evenodd" fill="#44D62C"><path d="M306.7665,201.31678c0.13498,0.1856 0.25309,0.38245 0.38807,0.56804c0.03655,0.2419 0.08268,0.48323 0.12823,0.72463c0.16366,0.86433 0.32733,1.72933 0.08548,2.62179c-0.03937,0.12373 -0.05624,0.25309 -0.06749,0.38245c-0.02475,0.32564 -0.0568,0.65173 -0.08886,0.97789c-0.07705,0.78368 -0.1541,1.56764 -0.13048,2.34603c0.03937,1.40606 -0.5568,2.4634 -1.4623,3.44202c-0.20247,0.21372 -0.35995,0.53992 -0.39932,0.83238c-0.6974,5.57359 -1.37793,11.15282 -2.05847,16.73204c-0.62992,5.21365 -1.2542,10.42167 -1.88974,15.63532c-0.7199,5.8998 -1.45104,11.80523 -2.17095,17.70503c-0.57575,4.68638 -1.14089,9.36921 -1.70944,14.05412h21.7803c5.20902,-5.42538 9.27755,-11.59956 12.20556,-18.52253c3.20518,-7.57821 4.80778,-15.5168 4.80778,-23.81578c0,-8.29912 -1.60259,-16.23767 -4.80778,-23.81564c-3.0962,-7.32002 -7.46712,-13.80286 -13.11277,-19.44854c-5.64565,-5.64573 -12.12842,-10.01664 -19.44832,-13.11271c-7.57815,-3.20525 -15.51676,-4.80787 -23.81582,-4.80787c-8.29903,0 -16.23756,1.60262 -23.81559,4.80787c-7.31994,3.09607 -13.80279,7.46698 -19.44854,13.11271c-5.64577,5.64577 -10.01669,12.12861 -13.11277,19.44854c-3.20524,7.57812 -4.80786,15.51667 -4.80786,23.81564c0,8.29897 1.60262,16.23756 4.80786,23.81578c2.92816,6.92297 6.99669,13.09715 12.20559,18.52253h22.77466c-1.37581,-9.22187 -2.74212,-18.4477 -4.10844,-27.67035l-4.96056,-33.47532c-0.17435,-1.2092 -0.32058,-2.41841 -0.55117,-3.61637c-0.07312,-0.36557 -0.29809,-0.75365 -0.56804,-1.01798c-0.35433,-0.3487 -0.60179,-0.65803 -0.64116,-1.20358c-0.14623,-2.08658 -0.47244,-4.16192 -0.51743,-6.2485c-0.0225,-1.07423 0.25871,-2.22157 0.68615,-3.21142c0.25309,-0.5793 1.04611,-0.94487 1.63102,-1.36106c0.39932,-0.28684 0.61866,-0.62428 0.70303,-1.10797c0.17435,-1.02923 0.38807,-2.05284 0.59617,-3.07645c0.21934,-1.10235 0.89425,-1.92348 1.73226,-2.61526c1.93473,-1.60291 4.23503,-2.46903 6.5972,-3.19455c4.07755,-1.24858 8.2676,-1.91224 12.50825,-2.23843c2.71087,-0.20809 5.43299,-0.31495 6.83342,-0.39369c7.87952,0.06749 14.38112,0.56242 20.74773,2.24968c2.49153,0.66366 4.91557,1.50167 7.08651,2.94147c1.40606,0.93362 2.52528,2.07533 2.68838,3.88071c0.01687,0.21372 0.12373,0.42182 0.15185,0.63553c0.23059,1.7885 0.94487,3.30142 2.31155,4.46c0.06186,0.09561 0.14061,0.17997 0.23621,0.24184zM296.941,272.55309c0.7199,-5.90542 1.42855,-11.81085 2.14845,-17.71065c0.75927,-6.22601 1.53541,-12.45201 2.29468,-18.67802l-0.00001,-0.00001c0.78177,-6.37786 1.55229,-12.75572 2.32843,-19.13358c0.13498,-1.0911 0.25309,-2.18219 0.36557,-3.24517c-1.41168,0.6974 -2.74462,1.4398 -4.13943,2.0191c-4.39814,1.81662 -9.02686,2.76711 -13.72308,3.37453c-8.037,1.03485 -16.07963,1.03485 -24.09413,-0.24747c-4.70184,-0.75365 -9.28558,-1.96285 -13.57123,-4.1113c-1.1361,-0.57367 -2.23282,-1.23733 -3.43639,-1.9066c0.03937,0.31495 0.05624,0.56804 0.09561,0.81551c0.71428,4.81995 1.43418,9.64553 2.14845,14.47111c1.37231,9.28558 2.73899,18.57116 4.1113,27.85674c1.05204,7.09225 2.10407,14.18736 3.15409,21.28125h41.73304c0.19573,-1.5946 0.39019,-3.18965 0.58465,-4.78543zM248.40964,193.44288c-0.57367,0.49493 -0.98423,1.19233 -1.42855,1.82224c-0.09561,0.13498 -0.08436,0.43869 0.01124,0.59617c0.87738,1.60291 2.28905,2.61526 3.90883,3.3689c-0.66928,-0.46119 -1.33294,-0.93362 -2.00784,-1.38356c-0.48368,-0.32058 -0.47806,-0.6749 -0.11811,-1.07985c0.60742,-0.68615 1.24295,-0.75927 2.02472,-0.22497c0.40495,0.27559 0.80427,0.56804 1.20358,0.84926c-0.77614,-1.48479 -0.60742,-2.51965 0.64678,-3.53763c0.25309,-0.20809 0.50618,-0.43307 0.79864,-0.56242c1.35544,-0.58492 2.68838,-1.25983 4.09443,-1.68164c4.49374,-1.34419 9.1281,-1.82224 13.79057,-2.03597c4.90432,-0.22497 9.80301,-0.11249 14.6792,0.48931c3.20018,0.39932 6.37224,0.95611 9.42056,2.06408c1.33856,0.48931 2.64338,1.05173 3.65574,2.09783c0.96736,0.99549 1.01236,2.24407 0.00562,3.18331c-0.64116,0.60179 -1.40606,1.11922 -2.19345,1.50167c-2.46903,1.20358 -5.12928,1.77163 -7.81766,2.23843c-4.95493,0.85488 -9.95486,1.14171 -14.97166,1.02361c-6.78281,-0.15748 -13.52062,-0.66928 -19.89848,-3.29017c0.27244,0.72648 -0.17328,1.0141 -0.69555,1.35105c-0.15697,0.10134 -0.32086,0.20708 -0.47429,0.33059c1.97972,0.56804 3.79635,1.18671 5.65796,1.60852c6.69281,1.51854 13.48687,1.91224 20.32591,1.63102c4.75809,-0.19685 9.47118,-0.70865 14.09428,-1.88974c2.62088,-0.66928 5.18553,-1.50729 7.42959,-3.09332c0.99549,-0.70303 1.83349,-1.53541 2.22719,-2.73899c0.16872,-0.5118 0.19122,-1.04048 -0.19685,-1.41168c-0.78177,-0.74802 -1.54666,-1.54666 -2.45216,-2.10908c-1.9966,-1.24295 -4.22941,-1.93473 -6.49597,-2.50278c-7.98077,-1.9966 -16.09651,-2.37341 -24.26849,-1.92348c-5.19115,0.28121 -10.32606,0.96175 -15.29787,2.54777c-2.0191,0.64116 -4.02131,1.36668 -5.65796,2.76149zM263.90998,190.83887c-1.62539,0.24184 -3.23392,0.5793 -4.8537,0.87175c0.00562,0.06186 0.00562,0.12936 0.00562,0.19685c0.12373,0.07874 0.24747,0.16311 0.37682,0.24184c4.90994,2.90209 9.83113,5.79294 14.72419,8.73441c0.95049,0.57367 1.87286,0.93925 2.99771,0.77052c0.37907,-0.05799 0.76827,-0.05754 1.15971,-0.05703c0.17773,0.00023 0.35545,0.00045 0.53318,-0.00483c4.40376,-0.14623 8.77377,-0.56804 13.07068,-1.59165c2.09783,-0.50055 4.18441,-1.06298 6.00104,-2.30593c1.79412,-1.22608 1.82787,-2.5534 -0.03374,-3.68949c-1.19233,-0.72552 -2.51402,-1.30482 -3.85258,-1.72101c-4.94368,-1.54103 -10.06172,-2.00222 -15.20788,-2.19345c-4.9943,-0.19122 -9.97173,0.01687 -14.92104,0.74802zM252.97088,197.34608c0.49493,0.41619 1.07423,0.73115 1.69851,1.14734c1.22608,-2.20469 2.39029,-4.2969 3.54888,-6.38911l-0.11811,-0.15748c-1.1136,0.42182 -2.24407,0.79864 -3.32954,1.28232c-0.64678,0.28684 -1.27108,0.6749 -1.81662,1.13047c-1.19796,0.99549 -1.18108,1.97972 0.01687,2.98646zM274.07856,201.64861c0.0225,-0.06186 0.03937,-0.11811 0.05624,-0.17997c-5.12928,-3.03145 -10.25294,-6.06291 -15.42722,-9.12248c-1.18108,2.12595 -2.32843,4.19004 -3.53201,6.34974c6.16414,2.28343 12.51388,2.73899 18.90299,2.95271zM252.36909,199.59577c0.56242,0.40495 0.94487,0.24184 1.37231,-0.28684c-1.10235,-0.78739 -2.17657,-1.55791 -3.26204,-2.30593c-0.63553,-0.44431 -0.9055,-0.37682 -1.38356,0.33183c1.0911,0.74802 2.19907,1.48479 3.2733,2.26093zM295.30435,209.79809c3.577,-0.87738 6.9909,-2.13158 10.04485,-4.26316c0.87175,-0.60742 1.25983,-1.22608 1.02361,-2.30031c-0.15185,-0.70303 -0.26996,-1.33856 -0.87175,-1.80537c-1.14734,-0.88863 -1.85599,-2.04159 -2.01347,-3.50951c-0.01124,-0.12936 -0.07312,-0.24747 -0.12936,-0.42182c-0.47244,0.52305 -0.8605,1.02361 -1.32169,1.44543c-1.63665,1.50167 -3.622,2.40154 -5.69733,3.09894c-6.11352,2.05847 -12.45201,2.6715 -18.85237,2.87398c-3.9257,0.12373 -7.84016,-0.06186 -11.74336,-0.49493c-4.05506,-0.44994 -8.06513,-1.16984 -11.91771,-2.56464c-2.71087,-0.97861 -5.24176,-2.24968 -7.15963,-4.49937c-0.01091,-0.01091 -0.04066,-0.00534 -0.07711,0.00146c-0.01985,0.00371 -0.04168,0.00782 -0.06349,0.00978c-0.06186,0.26996 -0.14623,0.54555 -0.17435,0.82113c-0.09561,1.02923 -0.46119,1.88974 -1.43418,2.38467c-0.98423,0.50055 -1.34981,1.36106 -1.52416,2.40716c-0.10124,0.57367 -0.03937,0.98986 0.43307,1.29357c1.2092,0.77614 2.3678,1.65352 3.65574,2.26093c4.53312,2.13158 9.39807,3.13269 14.31363,3.91446c6.19226,0.98423 12.42389,1.35544 18.68926,1.19233c5.00555,-0.13498 9.95486,-0.64678 14.8198,-1.84474zM304.98363,211.46286c0.39932,-0.43869 0.85488,-0.97299 0.95049,-1.51854c0.20809,-1.19233 0.20247,-2.41841 0.29246,-3.65012c-1.32732,0.74802 -2.53652,1.52416 -3.83009,2.1372c-4.4825,2.12595 -9.27433,3.09894 -14.15615,3.69511c-4.39814,0.53992 -8.81315,0.66928 -13.23941,0.55117c-7.23274,-0.19122 -14.37549,-1.01236 -21.37765,-2.87398c-3.58825,-0.95611 -7.09776,-2.12033 -10.11796,-4.39814c-0.01445,-0.01085 -0.0428,-0.00309 -0.07913,0.0068c-0.02025,0.00551 -0.04297,0.01164 -0.06709,0.0157c0.12936,1.45104 0.28121,2.90209 0.37682,4.35877c0.03374,0.50055 0.19685,0.84363 0.59054,1.15296c2.70524,2.13158 5.74233,3.61637 8.97624,4.72434c6.70406,2.29468 13.64997,3.10457 20.69711,3.18893c4.88745,0.06186 9.74676,-0.28121 14.57234,-1.0911c4.02131,-0.6749 7.98638,-1.58603 11.73774,-3.2508c1.72101,-0.76489 3.38578,-1.63665 4.67372,-3.04832zM251.18462,291.37707c7.57812,3.20518 15.51665,4.80778 23.81559,4.80778c8.29912,0 16.23773,-1.60259 23.81582,-4.80778c7.00959,-2.96495 13.25154,-7.09883 18.72583,-12.40167h-85.08332c5.47441,5.30311 11.71643,9.437 18.72607,12.40167zM212.29147,235.00024c0,-34.6331 28.07568,-62.70876 62.70879,-62.70876c34.6331,0 62.70879,28.07567 62.70879,62.70876c0,34.6331 -28.07568,62.70876 -62.70879,62.70876c-34.6331,0 -62.70879,-28.07567 -62.70879,-62.70876z" data-paper-data="{&quot;isPathIcon&quot;:true}" fill="#44D62C"></path></g><g data-paper-data="{&quot;isPrimaryText&quot;:true}" fill-rule="nonzero" fill="#44D62C"><path d="M225.9982,157.84604v0l-4.51661,2.81575l10.06763,16.14901l5.53924,-3.45328c2.6631,-1.66023 3.48143,-5.18806 1.8212,-7.85116c-0.95629,-1.53394 -2.50939,-2.45915 -4.17507,-2.66329c0.01186,-1.07245 -0.26099,-2.1745 -0.87195,-3.15452c-1.67351,-2.6844 -5.18004,-3.51602 -7.86444,-1.84251zM232.7474,171.56692v0l-2.00556,-3.21702l2.32222,-1.44772c0.8948,-0.55784 2.07074,-0.28506 2.62858,0.60974c0.55784,0.8948 0.27178,2.04944 -0.62302,2.60728zM228.723,165.11158v0l-2.00556,-3.21702l1.29959,-0.81019c0.8948,-0.55784 2.07074,-0.28506 2.62858,0.60974c0.54456,0.8735 0.27178,2.04944 -0.62302,2.60728z" data-paper-data="{&quot;glyphName&quot;:&quot;B&quot;,&quot;glyphIndex&quot;:0,&quot;firstGlyphOfWord&quot;:true,&quot;word&quot;:1}" fill="#44D62C"></path><path d="M248.36377,167.43215v0l3.63067,-1.09073l-2.18869,-7.28539l0.72133,-0.2167l5.48274,6.29578l3.99133,-1.19909l-5.96631,-6.85829c1.43265,-1.42654 2.03779,-3.60062 1.41658,-5.66842c-0.91015,-3.02957 -4.0754,-4.75251 -7.10497,-3.84236l-5.45803,1.63971zM248.7078,155.40131v0l-1.09073,-3.63067l1.82736,-0.54898c1.00986,-0.30338 2.07295,0.26852 2.37634,1.27838c0.29616,0.98581 -0.27575,2.04891 -1.2856,2.35229z" data-paper-data="{&quot;glyphName&quot;:&quot;R&quot;,&quot;glyphIndex&quot;:1,&quot;word&quot;:1}" fill="#44D62C"></path><path d="M274.5757,143.92537v0c-5.24705,0.02568 -9.49409,4.3145 -9.46841,9.56154c0.02568,5.24705 4.3145,9.49409 9.56154,9.46841c5.24705,-0.02568 9.49409,-4.3145 9.46841,-9.56154c-0.02568,-5.24705 -4.3145,-9.49409 -9.56154,-9.46841zM274.59438,147.74141v0c3.13819,-0.01536 5.71148,2.53287 5.72683,5.67105c0.01548,3.16329 -2.53275,5.73658 -5.67093,5.75194c-3.16329,0.01548 -5.73658,-2.53275 -5.75206,-5.69604c-0.01536,-3.13819 2.53287,-5.71148 5.69616,-5.72696z" data-paper-data="{&quot;glyphName&quot;:&quot;O&quot;,&quot;glyphIndex&quot;:2,&quot;word&quot;:1}" fill="#44D62C"></path><path d="M296.70636,157.84743v0c0.84633,0.49492 2.33093,0.79112 3.04118,1.55947c0.41615,0.4422 0.46347,1.06046 0.29471,1.61268c-0.30818,1.0084 -1.37398,1.57525 -2.35838,1.27441c-1.44057,-0.44026 -2.56833,-1.38871 -3.27389,-2.60191l-3.35415,1.7839c1.15571,2.05958 3.07108,3.69502 5.52006,4.44346c3.0012,0.9172 6.19861,-0.78334 7.11581,-3.78453c0.93921,-3.07323 -0.71066,-5.83512 -3.64382,-6.88904c-0.89769,-0.32685 -1.79737,-0.73306 -2.17549,-1.55742c-0.16138,-0.41685 -0.20471,-0.87637 -0.07263,-1.30855c0.30818,-1.0084 1.37398,-1.57525 2.38239,-1.26707c1.10444,0.33753 2.03413,0.98918 2.7057,1.79822l3.41684,-1.81724c-1.16973,-1.67009 -2.89438,-2.98472 -5.00722,-3.63043c-3.0012,-0.9172 -6.19861,0.78334 -7.12315,3.80854c-0.78512,2.56902 0.33854,5.24886 2.53204,6.57552z" data-paper-data="{&quot;glyphName&quot;:&quot;S&quot;,&quot;glyphIndex&quot;:3,&quot;word&quot;:1}" fill="#44D62C"></path><path d="M315.83211,166.03862v0c0.69026,0.69624 2.04844,1.36491 2.53677,2.29031c0.28818,0.53449 0.17463,1.14407 -0.1307,1.63417c-0.55756,0.89497 -1.73342,1.16811 -2.60709,0.62382c-1.27853,-0.79652 -2.12387,-2.00349 -2.49307,-3.35751l-3.7005,0.85958c0.5861,2.2878 2.0155,4.36148 4.189,5.71556c2.6636,1.65942 6.19119,0.84 7.8506,-1.8236c1.69924,-2.72753 0.81658,-5.82124 -1.74606,-7.59524c-0.78318,-0.54708 -1.54785,-1.17136 -1.70083,-2.06531c-0.04854,-0.44435 0.02798,-0.89953 0.26693,-1.28309c0.55756,-0.89497 1.73342,-1.16811 2.6284,-0.61055c0.98021,0.61067 1.71063,1.47983 2.15111,2.43457l3.76967,-0.87565c-0.7,-1.91506 -2.02775,-3.62963 -3.90293,-4.79786c-2.6636,-1.65942 -6.19119,-0.84 -7.86388,1.84491c-1.42046,2.28004 -1.02511,5.1589 0.75258,7.00588z" data-paper-data="{&quot;glyphName&quot;:&quot;S&quot;,&quot;glyphIndex&quot;:4,&quot;lastGlyphOfWord&quot;:true,&quot;word&quot;:1}" fill="#44D62C"></path></g><g data-paper-data="{&quot;isMirroredPrimaryText&quot;:true}" fill-rule="nonzero" fill="#44D62C"><path d="M236.06583,296.00542v0l-4.51661,-2.81575l-10.06763,16.14901l5.53924,3.45328c2.6631,1.66023 6.19093,0.84189 7.85116,-1.8212c0.95629,-1.53394 1.10327,-3.33575 0.55326,-4.9212c0.96816,-0.46149 1.83754,-1.19165 2.44851,-2.17167c1.67351,-2.6844 0.87648,-6.19895 -1.80792,-7.87246zM226.71745,308.10591v0l2.00556,-3.21702l2.32222,1.44772c0.8948,0.55784 1.16758,1.73378 0.60974,2.62858c-0.55784,0.8948 -1.7205,1.14627 -2.6153,0.58844zM230.74184,301.65057v0l2.00556,-3.21702l1.29959,0.81019c0.8948,0.55784 1.16758,1.73378 0.60974,2.62858c-0.54456,0.8735 -1.7205,1.14627 -2.6153,0.58844z" data-paper-data="{&quot;glyphName&quot;:&quot;B&quot;,&quot;glyphIndex&quot;:0,&quot;firstGlyphOfWord&quot;:true,&quot;word&quot;:1}" fill="#44D62C"></path><path d="M242.88843,320.79381v0l3.63067,1.09073l2.18869,-7.28539l0.72133,0.2167l1.10536,8.27499l3.99133,1.19909l-1.19886,-9.01087c1.98163,-0.40082 3.68473,-1.88145 4.30594,-3.94925c0.91015,-3.02957 -0.78153,-6.21164 -3.81109,-7.12179l-5.45803,-1.63971zM249.80575,310.94445v0l1.09073,-3.63067l1.82736,0.54898c1.00986,0.30338 1.58176,1.36648 1.27838,2.37634c-0.29616,0.98581 -1.35926,1.55772 -2.36911,1.25433z" data-paper-data="{&quot;glyphName&quot;:&quot;R&quot;,&quot;glyphIndex&quot;:1,&quot;word&quot;:1}" fill="#44D62C"></path><path d="M274.66884,307.04514v0c-5.24705,-0.02568 -9.53586,4.22137 -9.56154,9.46841c-0.02568,5.24705 4.22137,9.53586 9.46841,9.56154c5.24705,0.02568 9.53586,-4.22137 9.56154,-9.46841c0.02568,-5.24705 -4.22137,-9.53586 -9.46841,-9.56154zM274.65016,310.86117v0c3.13819,0.01536 5.68641,2.58865 5.67105,5.72683c-0.01548,3.16329 -2.58877,5.71152 -5.72696,5.69616c-3.16329,-0.01548 -5.71152,-2.58877 -5.69604,-5.75206c0.01536,-3.13819 2.58865,-5.68641 5.75194,-5.67093z" data-paper-data="{&quot;glyphName&quot;:&quot;O&quot;,&quot;glyphIndex&quot;:2,&quot;word&quot;:1}" fill="#44D62C"></path><path d="M297.73362,315.51438v0c0.9784,-0.06274 2.37495,-0.64706 3.39339,-0.40701c0.59225,0.13402 0.9771,0.62021 1.14587,1.17243c0.30818,1.0084 -0.25867,2.07421 -1.24306,2.37505c-1.44057,0.44026 -2.90586,0.28427 -4.16908,-0.32725l-1.7839,3.35415c2.1096,1.06166 4.61198,1.34699 7.06096,0.59855c3.0012,-0.9172 4.70174,-4.11462 3.78453,-7.11581c-0.93921,-3.07323 -3.85116,-4.44098 -6.87237,-3.67517c-0.92704,0.23081 -1.9001,0.39693 -2.67445,-0.07523c-0.36683,-0.25542 -0.65964,-0.61222 -0.79172,-1.04439c-0.30818,-1.0084 0.25867,-2.07421 1.26707,-2.38239c1.10444,-0.33753 2.23958,-0.31691 3.24868,-0.02151l1.81724,-3.41684c-1.90349,-0.73087 -4.0684,-0.85681 -6.18124,-0.2111c-3.0012,0.9172 -4.70174,4.11462 -3.7772,7.13982c0.78512,2.56902 3.21488,4.16289 5.77527,4.03671z" data-paper-data="{&quot;glyphName&quot;:&quot;S&quot;,&quot;glyphIndex&quot;:3,&quot;word&quot;:1}" fill="#44D62C"></path><path d="M317.69066,306.94509v0c0.92921,-0.31268 2.12809,-1.23706 3.17399,-1.26748c0.60679,-0.02308 1.1039,0.34755 1.40923,0.83765c0.55756,0.89497 0.28442,2.07083 -0.58924,2.61512c-1.27853,0.79652 -2.73454,1.02328 -4.11266,0.75784l-0.85958,3.7005c2.3119,0.48235 4.80332,0.11337 6.97682,-1.24071c2.6636,-1.65942 3.48302,-5.187 1.8236,-7.8506c-1.69924,-2.72753 -4.86526,-3.29893 -7.5872,-1.78064c-0.83629,0.46184 -1.73371,0.87304 -2.60355,0.61631c-0.42025,-0.15229 -0.79509,-0.42162 -1.03405,-0.80518c-0.55756,-0.89497 -0.28442,-2.07083 0.61055,-2.6284c0.98021,-0.61067 2.08234,-0.88318 3.13348,-0.85771l0.87565,-3.76967c-2.02753,-0.21582 -4.15181,0.22022 -6.02698,1.38845c-2.6636,1.65942 -3.48302,5.187 -1.81033,7.87191c1.42046,2.28004 4.17882,3.19415 6.62027,2.41262z" data-paper-data="{&quot;glyphName&quot;:&quot;S&quot;,&quot;glyphIndex&quot;:4,&quot;lastGlyphOfWord&quot;:true,&quot;word&quot;:1}" fill="#44D62C"></path></g><g data-paper-data="{&quot;isContainerElementsWrapper&quot;:true}" fill-rule="evenodd" fill="#44D62C"><path d="M156.14879,184.77906c6.52918,-15.43665 15.74068,-29.10188 27.6345,-40.9957c11.89387,-11.89387 25.55915,-21.10539 40.99585,-27.63458c15.99622,-6.76586 32.73659,-10.14879 50.2211,-10.14879c17.48477,0 34.22488,3.38298 50.2211,10.14886c15.43628,6.52913 29.10157,15.74066 40.99585,27.63458c11.89376,11.89376 21.10516,25.55897 27.63418,40.99562c6.76575,15.99627 10.14863,32.73667 10.14863,50.22118c0,17.48399 -3.38314,34.22488 -10.14863,50.2211c-6.52877,15.43655 -15.74068,29.10157 -27.63418,40.99585c-11.89428,11.89376 -25.55957,21.10516 -40.99585,27.63418c-15.99648,6.76575 -32.73685,10.14863 -50.2211,10.14863c-17.48454,0 -34.22488,-3.38314 -50.2211,-10.14863c-15.43665,-6.52877 -29.10196,-15.74068 -40.99593,-27.63418c-11.89381,-11.89428 -21.10529,-25.55957 -27.63442,-40.99585c-6.76586,-15.99648 -10.14879,-32.73685 -10.14879,-50.2211c0,-17.48451 3.38293,-34.2249 10.14879,-50.22118zM272.13938,121.16345l-1.24892,0.02399l-0.12056,-6.2697l3.78008,-0.07266l0.02414,1.25723l-2.53108,0.04868l0.02406,1.24892l2.531,-0.0486l0.02422,1.25723l-2.53108,0.04868zM278.82484,121.17764l1.24767,0.06185l0.12416,-2.50357l2.52842,0.12542l0.06232,-1.25598l-2.52842,-0.12542l0.06192,-1.24767l2.52842,0.12542l0.06224,-1.2559l-3.77609,-0.18734zM263.03674,115.47639c-1.72057,0.1708 -2.98117,1.70928 -2.81037,3.42986c0.1708,1.72057 1.70928,2.98117 3.42986,2.81037c1.72057,-0.1708 2.98117,-1.70921 2.81037,-3.42986c-0.1708,-1.72057 -1.70921,-2.98117 -3.42986,-2.81037zM290.49322,122.16264l-3.75398,-0.4486l0.74404,-6.22659l3.75382,0.4486l-0.14893,1.24861l-2.51376,-0.30037l-0.14823,1.24038l2.51384,0.30037l-0.14972,1.24861l-2.51329,-0.30037l-0.14823,1.24038l2.51368,0.30037zM294.59594,122.79858l3.71314,0.70931l0.23594,-1.23521l-2.4864,-0.47494l0.23437,-1.22705l2.4864,0.47502l0.23594,-1.23521l-2.4864,-0.47494l0.23437,-1.22705l2.4864,0.47502l0.23594,-1.23521l-3.71314,-0.70931zM263.16098,116.72774c1.02905,-0.10214 1.95212,0.65421 2.05426,1.68326c0.103,1.03728 -0.65335,1.96035 -1.6824,2.06249c-1.03728,0.103 -1.96035,-0.65335 -2.06335,-1.69063c-0.10214,-1.02905 0.65421,-1.95212 1.69149,-2.05512zM253.61819,116.77627c-1.70035,0.31339 -2.82856,1.95142 -2.51525,3.65177c0.31339,1.70043 1.95142,2.82864 3.65184,2.51525c0.82172,-0.15144 1.51026,-0.61478 1.966,-1.24555l-1.03093,-0.7101c-0.26996,0.36097 -0.68298,0.63054 -1.16301,0.71903c-1.02513,0.18891 -2.00645,-0.47988 -2.19536,-1.50501c-0.18742,-1.01698 0.48952,-1.99978 1.51465,-2.18869c0.48004,-0.0885 0.96195,0.01615 1.3444,0.26534l0.70861,-1.03908c-0.65068,-0.42689 -1.45923,-0.61439 -2.28095,-0.46295zM178.21443,194.11201c-5.50416,13.01322 -8.25624,26.64263 -8.25624,40.88823c0,14.24534 2.75208,27.87483 8.25624,40.88847c5.31556,12.56736 12.8189,23.6966 22.51002,33.38771c9.69086,9.69059 20.82007,17.1937 33.38763,22.50931c13.01322,5.50426 26.6426,8.25639 40.88815,8.25639c14.24531,0 27.87483,-2.75213 40.88847,-8.25639c12.56736,-5.31561 23.6966,-12.81872 33.38771,-22.50931c9.69059,-9.69112 17.1937,-20.82035 22.50931,-33.38771c5.50426,-13.01364 8.25639,-26.64312 8.25639,-40.88847c0,-14.24563 -2.75213,-27.87499 -8.25639,-40.88823c-5.31561,-12.5675 -12.81872,-23.69676 -22.50931,-33.38779c-9.69112,-9.69096 -20.82035,-17.19425 -33.38771,-22.50986c-13.01311,-5.5041 -26.6426,-8.25616 -40.88847,-8.25616c-14.2456,0 -27.87499,2.75208 -40.88815,8.25624c-12.5675,5.31556 -23.69674,12.81885 -33.38771,22.50986c-9.69106,9.69103 -17.19438,20.82027 -22.50994,33.38771zM295.77251,353.36146l3.71314,-0.70939l-0.23594,-1.23536l-2.4864,0.47502l-0.23437,-1.22674l2.4864,-0.47502l-0.23594,-1.23536l-2.4864,0.47502l-0.23437,-1.22674l2.4864,-0.47502l-0.23594,-1.23536l-3.71314,0.70939zM251.10294,349.57228c0.31339,-1.70019 1.95142,-2.82817 3.65184,-2.51541c0.82172,0.15207 1.51026,0.61533 1.966,1.24555l-1.0325,0.7188c-0.26839,-0.3692 -0.68141,-0.63885 -1.16144,-0.72742c-1.02513,-0.18891 -2.00793,0.48834 -2.19536,1.50501c-0.18891,1.02529 0.48952,1.99963 1.51465,2.18854c0.48004,0.08858 0.96195,-0.01568 1.34291,-0.25711l0.7101,1.03078c-0.65068,0.4272 -1.45923,0.61455 -2.28095,0.46326c-1.70035,-0.31354 -2.82856,-1.95181 -2.51525,-3.652zM291.2371,354.06458l-3.75382,0.44837l-0.74404,-6.2262l3.75398,-0.44915l0.14925,1.24869l-2.51368,0.30022l0.14823,1.24085l2.51329,-0.30022l0.14972,1.24869l-2.51384,0.30022l0.14823,1.24007l2.51376,-0.30022zM263.65622,348.28362c-1.72057,-0.17088 -3.25905,1.09035 -3.42986,2.81092c-0.1708,1.72057 1.0898,3.2585 2.81037,3.42939c1.72065,0.17088 3.25905,-1.08956 3.42986,-2.81014c0.1708,-1.72057 -1.0898,-3.25929 -2.81037,-3.43017zM279.13549,355.08595l1.24767,-0.06192l-0.12416,-2.50365l2.52842,-0.12542l-0.06232,-1.25574l-2.52842,0.12542l-0.06185,-1.2479l2.52834,-0.12542l-0.06224,-1.25574l-3.77609,0.18734zM272.0189,355.10711l-1.249,-0.0243l0.12056,-6.27009l3.78001,0.0729l-0.02414,1.25731l-2.53108,-0.0486l-0.02399,1.24869l2.53108,0.0486l-0.02422,1.25731l-2.531,-0.0486zM263.53198,349.53544c1.02905,0.1019 1.7854,1.02529 1.68326,2.05371c-0.10292,1.03783 -1.02599,1.79425 -2.05504,1.69157c-1.03728,-0.10269 -1.79371,-1.02607 -1.69071,-2.06312c0.10214,-1.02921 1.02521,-1.78563 2.06249,-1.68216z" data-paper-data="{&quot;isAdditionalSecondaryTextDonut&quot;:true}" fill="#44D62C"></path><path d="M210.38353,181.74435c-5.16332,6.23978 -9.33911,13.12858 -12.52738,20.66638c-4.38669,10.3713 -6.58003,21.23457 -6.58003,32.58982c0,11.3553 2.19334,22.21845 6.58003,32.58943c3.18811,7.53759 7.36371,14.42641 12.5268,20.66646h2.65795c-5.54433,-6.42556 -9.98275,-13.57775 -13.31524,-21.45659c-4.27987,-10.1191 -6.41981,-20.71887 -6.41981,-31.7993c0,-11.0808 2.13994,-21.68048 6.41981,-31.79907c3.33241,-7.87873 7.77088,-15.03111 13.31541,-21.45714zM336.95963,181.74435c5.54424,6.42569 9.98324,13.57809 13.31621,21.45714c4.27909,10.11861 6.41903,20.71827 6.41903,31.79907c0,11.07991 -2.13968,21.67967 -6.41903,31.7993c-3.33193,7.87779 -7.77066,15.02998 -13.31621,21.45659h2.65807c5.16328,-6.24031 9.3389,-13.12886 12.52686,-20.66646c4.38726,-10.37125 6.5805,-21.23468 6.5805,-32.58943c0,-11.35556 -2.1935,-22.21884 -6.5805,-32.58982c-3.18822,-7.53801 -7.36384,-14.4268 -12.52686,-20.66638z" data-paper-data="{&quot;isJbensonConnector&quot;:true}" fill="#44D62C"></path></g></g></g></svg>