<svg xmlns:xlink="http://www.w3.org/1999/xlink" xmlns="http://www.w3.org/2000/svg" width="200" viewBox="0 0 200 200" height="200" ><path d="M0,100c0,-54.75794 44.38985,-99.14747 99.14747,-99.14747c23.09237,0 44.34077,7.8942 61.19365,21.13157c-12.83407,-7.14521 -27.61519,-11.21661 -43.34715,-11.21661c-49.28183,0 -89.23272,39.95112 -89.23272,89.23251c0,49.28183 39.9509,89.23272 89.23272,89.23272c15.73196,0 30.51307,-4.07107 43.34715,-11.21736c-16.85287,13.23748 -38.10127,21.1321 -61.19365,21.1321c-54.75762,0 -99.14747,-44.38985 -99.14747,-99.14747zM200,100c0,43.80614 -35.51173,79.31798 -79.31787,79.31798c-18.47385,0 -35.47258,-6.31568 -48.95492,-16.90568c10.26726,5.71702 22.09213,8.97393 34.67772,8.97393c39.42544,0 71.3859,-31.96067 71.3859,-71.38622c0,-39.42512 -31.96046,-71.38601 -71.3859,-71.38601c-12.58559,0 -24.41045,3.25626 -34.67772,8.97393c13.48234,-10.59033 30.48107,-16.90548 48.95492,-16.90548c43.80614,0 79.31787,35.51163 79.31787,79.31755zM132.88811,74.90586c0,12.6751 -11.26676,21.12517 -20.99714,21.2532c7.04172,0 25.60627,1.79244 25.60627,22.78958c0,14.59557 -8.83416,26.1184 -35.72074,26.1184c-3.7129,0 -7.29779,-0.25606 -13.18723,-0.25606h-25.99036c-0.12803,0 -0.12803,-0.25606 0,-0.25606h8.194c0.76818,0 1.28031,-0.51213 1.28031,-1.28031v-86.54919c0,-0.76818 -0.51213,-1.28031 -1.28031,-1.28031h-8.194c-0.12803,0 -0.12803,-0.25606 0,-0.25606h25.99036c5.76141,0 9.85841,-0.25606 13.18723,-0.25606c23.04564,0 31.11161,7.55385 31.11161,19.97289zM113.6834,76.05814c0,-15.74785 -2.81669,-20.8691 -11.90692,-20.8691c-2.94472,0 -8.32204,0 -8.32204,0.76818v38.92153c0,0.76818 0.51213,1.28031 1.28031,1.28031h8.45007c7.04172,0 10.49857,-3.32882 10.49857,-20.10092zM93.45445,144.04279c0,0.76818 5.50535,0.76818 8.32204,0.76818c11.65085,0 14.08345,-5.50535 14.08345,-23.17367c0,-18.82061 -2.68866,-25.22217 -13.82738,-25.22217h-7.29779c-0.76818,0 -1.28031,0.51213 -1.28031,1.28031z" fill-rule="evenodd"></path></svg>